<?xml version="1.0" encoding="UTF-8"?>
<!DOCTYPE svg PUBLIC "-//W3C//DTD SVG 1.1//EN" "http://www.w3.org/Graphics/SVG/1.1/DTD/svg11.dtd">
<!-- Creator: CorelDRAW 2018 (64 Bit) -->
<svg xmlns="http://www.w3.org/2000/svg" xml:space="preserve" width="143px" height="70px" version="1.1" style="shape-rendering:geometricPrecision; text-rendering:geometricPrecision; image-rendering:optimizeQuality; fill-rule:evenodd; clip-rule:evenodd"
viewBox="0 0 55530 27140"
 xmlns:xlink="http://www.w3.org/1999/xlink">
 <defs>
  <style type="text/css">
   <![CDATA[
    .fil2 {fill:#6F6F6E;fill-rule:nonzero}
    .fil0 {fill:white;fill-rule:nonzero}
    .fil1 {fill:#006EC7;fill-rule:nonzero}
   ]]>
  </style>
 </defs>
 <g id="Camada_x0020_1">
  <metadata id="CorelCorpID_0Corel-Layer"/>
  <g id="_2493029149040">
   <path class="fil0" d="M13570 27140c-1650,0 -3200,-640 -4370,-1810l-7390 -7390c-1170,-1170 -1810,-2720 -1810,-4370 0,-1650 640,-3200 1810,-4370l7390 -7390c1160,-1160 2710,-1810 4360,-1810l30 0c1640,0 3190,650 4350,1810l7390 7390c1170,1170 1810,2720 1810,4370 0,1650 -640,3200 -1810,4370l-7390 7390c-1170,1170 -2720,1810 -4370,1810z"/>
   <path class="fil0" d="M13570 26520c-1480,0 -2880,-570 -3930,-1620l-7390 -7400c-1050,-1050 -1630,-2440 -1630,-3930 0,-1490 580,-2880 1630,-3930l7390 -7400c1050,-1050 2440,-1620 3930,-1620 1490,0 2880,570 3930,1620l7400 7400c1050,1050 1620,2440 1620,3930 0,1490 -570,2880 -1620,3930l-7400 7400c-1050,1050 -2440,1620 -3930,1620z"/>
   <path class="fil1" d="M2960 17350c2540,-6900 9170,-11830 16950,-11830l-2840 -2840c-1930,-1930 -5070,-1930 -6990,0l-7400 7390c-930,940 -1450,2180 -1450,3500 0,1320 520,2560 1450,3500l280 280z"/>
   <path class="fil1" d="M24460 10070l-70 -60c-1510,-390 -3090,-590 -4720,-590 -6690,0 -12580,3420 -16020,8620l700 700c4260,-4780 9820,-5930 14200,-5490 0,0 1200,2900 1910,4620 -6330,-1810 -11420,-750 -15450,1520l5070 5070c930,930 2170,1450 3490,1450 1320,0 2560,-520 3500,-1450l7390 -7390c1930,-1930 1930,-5070 0,-7000z"/>
   <path class="fil2" d="M50330 13920l350 -430c330,-380 860,-520 1330,-330 390,160 800,230 1200,230 330,0 470,-80 470,-230l0 -20c0,-150 -180,-240 -760,-350 -1220,-250 -2300,-600 -2300,-1750l0 -20c0,-1040 810,-1840 2320,-1840 1050,0 1830,250 2460,750l-310 430c-300,410 -840,580 -1320,420 -310,-110 -620,-160 -900,-160 -270,0 -390,100 -390,230l0 10c0,150 140,250 720,350 1390,260 2330,670 2330,1760l0 20c0,1140 -940,1840 -2410,1840 -1100,0 -2100,-310 -2790,-910zm-5500 -1630l0 -2230c0,-430 350,-780 780,-780l1080 0 0 2990c0,670 350,960 840,960 490,0 840,-260 840,-930l0 -2240c0,-430 350,-780 780,-780l1070 0 0 2970c0,1860 -1080,2590 -2710,2590 -1630,0 -2680,-750 -2680,-2550zm-5750 -270l0 -10c0,-1480 1140,-2730 2620,-2830 1350,-100 2250,510 2740,1400l-910 540c-280,160 -650,150 -890,-70 -180,-150 -400,-250 -690,-250 -610,0 -1020,540 -1020,1190l0 20c0,710 420,1210 1020,1210 300,0 530,-100 710,-260 240,-220 590,-280 880,-120l940 540c-460,810 -1220,1470 -2570,1470 -1510,0 -2830,-1140 -2830,-2830zm-2230 0l0 -10c0,-650 -440,-1230 -1140,-1230 -690,0 -1130,570 -1130,1210l0 20c0,650 450,1230 1150,1230 690,0 1120,-580 1120,-1220zm-4110 0l0 -10c0,-1580 1300,-2840 2990,-2840 1680,0 2960,1240 2960,2820l0 20c0,1580 -1300,2840 -2980,2840 -1680,0 -2970,-1250 -2970,-2830zm-3580 -2740l3790 0 0 780c0,430 -350,780 -780,780l-1770 0c-100,0 -190,90 -190,200l0 490 1990 0 0 640c0,430 -350,780 -780,780l-1020 0c-100,0 -190,90 -190,190l0 820c0,430 -350,770 -780,770l-1040 0 0 -4670c0,-430 350,-780 770,-780z"/>
   <path class="fil2" d="M28400 16890l0 -10c0,-600 440,-1090 1060,-1090 390,0 620,140 830,330l-20 20c-80,90 -210,100 -300,30 -140,-100 -300,-160 -510,-160 -470,0 -820,380 -820,870l0 0c0,490 360,870 820,870 220,0 380,-60 530,-170 90,-70 220,-60 300,20l10 0c-220,230 -460,370 -850,370 -600,0 -1050,-480 -1050,-1080z"/>
   <path class="fil2" d="M33430 16890l0 -10c0,-480 -350,-870 -830,-870 -480,0 -830,390 -830,870l0 0c0,480 350,870 830,870 490,0 830,-380 830,-860zm-1900 0l0 -10c0,-580 430,-1090 1070,-1090 650,0 1080,500 1080,1090l0 0c0,580 -440,1090 -1080,1090 -640,0 -1070,-500 -1070,-1080z"/>
   <path class="fil2" d="M35090 15830l110 0c70,0 130,30 180,90l1260 1600 0 -1460c0,-130 100,-230 230,-230l0 2110 -80 0c-70,0 -140,-40 -180,-90l-1290 -1640 0 1490c0,130 -110,240 -230,240l0 -2110z"/>
   <path class="fil2" d="M38280 16890l0 -10c0,-600 440,-1090 1060,-1090 390,0 620,140 830,330l-20 20c-80,90 -210,100 -300,30 -140,-100 -300,-160 -510,-160 -470,0 -820,380 -820,870l0 0c0,490 360,870 820,870 220,0 380,-60 530,-170 100,-70 220,-60 300,20l10 0c-220,230 -460,370 -840,370 -610,0 -1060,-480 -1060,-1080z"/>
   <path class="fil2" d="M41470 17050l0 -990c0,-130 100,-230 230,-230l0 0 0 1210c0,450 250,710 650,710 390,0 640,-240 640,-700l0 -990c0,-130 100,-230 230,-230l0 0 0 1210c0,610 -350,930 -880,930 -520,0 -870,-320 -870,-920z"/>
   <path class="fil2" d="M45580 16900c310,0 540,-160 540,-430l0 -10c0,-260 -200,-410 -540,-410l-650 0 0 850 650 0zm-890 -1070l910 0c260,0 470,70 600,210 100,100 160,250 160,410l0 10c0,350 -240,550 -570,610l650 870 -180 0c-70,0 -140,-40 -180,-100l-550 -720 -600 0 0 580c0,130 -100,240 -230,240l-10 0 0 -2110z"/>
   <path class="fil2" d="M47640 17630l0 0c80,-90 210,-110 300,-50 170,120 350,170 570,170 280,0 470,-150 470,-360l0 0c0,-200 -110,-310 -550,-400 -490,-110 -710,-270 -710,-610l0 -10c0,-330 290,-570 690,-570 310,0 530,80 750,260l-10 0c-70,90 -190,120 -290,70 -150,-80 -290,-120 -450,-120 -280,0 -450,150 -450,340l0 10c0,200 110,310 570,410 470,100 690,270 690,590l0 10c0,360 -300,600 -720,600 -340,0 -610,-110 -860,-340z"/>
   <path class="fil2" d="M52420 16890l0 -10c0,-480 -350,-870 -830,-870 -480,0 -830,390 -830,870l0 0c0,480 350,870 830,870 490,0 830,-380 830,-860zm-1900 0l0 -10c0,-580 430,-1090 1070,-1090 650,0 1080,500 1080,1090l0 0c0,580 -440,1090 -1080,1090 -640,0 -1070,-500 -1070,-1080z"/>
   <path class="fil2" d="M53940 17630l0 0c80,-90 210,-110 300,-50 170,120 350,170 570,170 280,0 470,-150 470,-360l0 0c0,-200 -110,-310 -550,-400 -490,-110 -710,-270 -710,-610l0 -10c0,-330 290,-570 690,-570 310,0 530,80 750,260l-10 0c-70,90 -190,120 -290,70 -150,-80 -290,-120 -450,-120 -280,0 -450,150 -450,340l0 10c0,200 110,310 570,410 470,100 690,270 690,590l0 10c0,360 -300,600 -720,600 -340,0 -610,-110 -860,-340z"/>
  </g>
 </g>
</svg>
