<?xml version="1.0" encoding="UTF-8"?>
<!DOCTYPE svg PUBLIC "-//W3C//DTD SVG 1.1//EN" "http://www.w3.org/Graphics/SVG/1.1/DTD/svg11.dtd">
<!-- Creator: CorelDRAW 2018 (64 Bit) -->
<svg xmlns="http://www.w3.org/2000/svg" xml:space="preserve" width="600px" height="166px" version="1.1" style="shape-rendering:geometricPrecision; text-rendering:geometricPrecision; image-rendering:optimizeQuality; fill-rule:evenodd; clip-rule:evenodd"
viewBox="0 0 438410 121370"
 xmlns:xlink="http://www.w3.org/1999/xlink">
 <defs>
  <style type="text/css">
   <![CDATA[
    .fil0 {fill:#1C5EAA;fill-rule:nonzero}
    .fil1 {fill:#96C221;fill-rule:nonzero}
   ]]>
  </style>
 </defs>
 <g id="Camada_x0020_1">
  <metadata id="CorelCorpID_0Corel-Layer"/>
  <g id="_2538530969008">
   <path class="fil0" d="M24430 68070c0,-1260 -260,-2160 -800,-2760 -530,-570 -1070,-980 -1600,-1230 -720,-330 -1500,-660 -2320,-1010 -820,-350 -1710,-650 -2670,-940 -1540,-540 -3090,-1090 -4610,-1670 -1520,-570 -2890,-1350 -4130,-2320 -1230,-970 -2220,-2160 -2980,-3600 -760,-1410 -1130,-3220 -1130,-5380 0,-2610 450,-4990 1380,-7110 920,-2120 2220,-3930 3880,-5410 1670,-1450 3700,-2610 6070,-3410 2360,-800 4970,-1190 7830,-1190 1000,0 2300,80 3840,250 1540,180 3060,470 4540,900 1460,430 2710,1050 3760,1850 1030,800 1540,1830 1540,3080 0,1260 -530,2410 -1580,3460 -1070,1040 -2470,1560 -4210,1560 -680,0 -1260,-80 -1770,-230 -510,-140 -1050,-330 -1640,-570 -680,-250 -1420,-500 -2240,-740 -830,-230 -1870,-350 -3130,-350 -960,0 -1910,100 -2850,290 -950,180 -1790,530 -2510,1000 -720,500 -1300,1150 -1730,1980 -430,820 -660,1820 -660,3040 0,1290 290,2240 850,2810 550,600 1090,1010 1620,1260 860,470 1710,860 2530,1150 820,280 1620,550 2400,800 1540,470 3110,1030 4650,1660 1540,640 2910,1420 4150,2390 1230,960 2220,2180 2980,3590 760,1420 1130,3210 1130,5330 0,2810 -540,5320 -1610,7540 -1060,2240 -2520,4110 -4350,5630 -1830,1520 -3990,2690 -6470,3510 -2490,820 -5160,1240 -8020,1240 -1290,0 -2790,-130 -4460,-370 -1660,-250 -3250,-620 -4750,-1130 -1500,-520 -2770,-1200 -3800,-2040 -1050,-840 -1560,-1830 -1560,-3000 0,-640 140,-1250 430,-1850 290,-590 680,-1130 1190,-1600 520,-450 1090,-820 1750,-1110 640,-290 1340,-430 2060,-430 530,0 1080,80 1680,240 580,190 1190,390 1870,620 820,290 1810,600 2940,950 1130,340 2490,510 4030,510 2790,0 4910,-640 6350,-1890 1420,-1260 2130,-3020 2130,-5300zm21750 -31380c180,-1260 840,-2350 1970,-3270 1110,-930 2360,-1380 3760,-1380 1400,0 2530,450 3410,1380 870,920 1190,2010 1010,3270l-6020 43130c-190,1250 -840,2340 -1950,3270 -1110,920 -2370,1380 -3770,1380 -1410,0 -2540,-460 -3410,-1380 -880,-930 -1210,-2020 -1020,-3270l6020 -43130zm59390 43190c-190,1260 -850,2350 -1950,3230 -1140,900 -2370,1360 -3720,1360 -1400,0 -2550,-460 -3440,-1360 -880,-880 -1230,-1970 -1040,-3230l3470 -24920 -10500 16230c-640,970 -1400,1670 -2320,2100 -930,430 -1900,650 -2900,650 -970,0 -1850,-220 -2610,-650 -780,-430 -1340,-1130 -1690,-2100l-6000 -16230 -3490 24920c-190,1260 -860,2350 -2020,3230 -1170,900 -2440,1360 -3840,1360 -1420,0 -2530,-460 -3350,-1360 -820,-880 -1130,-1970 -940,-3230l6020 -43050c180,-1400 860,-2550 1990,-3450 1130,-890 2450,-1340 3950,-1340 2460,0 4000,950 4640,2840l9350 25580 16460 -25660c680,-1050 1520,-1790 2490,-2180 960,-390 1950,-580 2960,-580 1500,0 2670,470 3510,1420 850,940 1170,2070 970,3370l-6000 43050zm46690 -13480c-350,2610 -1090,5020 -2220,7210 -1130,2200 -2590,4120 -4380,5740 -1790,1620 -3880,2880 -6270,3760 -2400,900 -5010,1360 -7870,1360 -2890,0 -5420,-460 -7580,-1380 -2160,-930 -3880,-2180 -5180,-3780 -1290,-1580 -2200,-3500 -2670,-5700 -490,-2190 -580,-4600 -230,-7210l4130 -29570c250,-1400 930,-2550 2040,-3450 1110,-890 2380,-1340 3840,-1340 1360,0 2470,470 3310,1420 840,940 1150,2070 970,3370l-4130 29570c-390,2610 -50,4750 1040,6390 1090,1650 3000,2470 5760,2470 2770,0 4890,-820 6390,-2470 1500,-1640 2440,-3780 2830,-6390l4140 -29570c180,-1250 840,-2380 1950,-3350 1110,-970 2360,-1440 3760,-1440 1500,0 2690,470 3530,1440 850,970 1150,2100 970,3350l-4130 29570zm37540 12330c0,1400 -550,2590 -1660,3580 -1110,1000 -2400,1500 -3900,1500l-20450 0c-1460,0 -2650,-500 -3620,-1460 -970,-970 -1360,-2140 -1170,-3540l5940 -42120c180,-1260 840,-2350 1970,-3270 1110,-930 2360,-1380 3760,-1380 1400,0 2530,450 3410,1380 870,920 1200,2010 1010,3270l-5360 37970 15740 0c1250,0 2280,390 3100,1150 820,790 1230,1750 1230,2920zm14200 2320c-510,1070 -1290,1920 -2340,2510 -1050,600 -1990,910 -2880,910 -1290,0 -2400,-370 -3290,-1130 -880,-760 -1330,-1750 -1330,-3000 0,-350 60,-720 180,-1140 110,-410 210,-740 310,-980l19940 -41250c670,-1390 1520,-2570 2480,-3510 970,-950 2300,-1420 4050,-1420 1750,0 2980,450 3740,1380 740,920 1250,2090 1540,3550l8350 41250 0 800c0,1640 -580,2960 -1730,3950 -1170,1000 -2550,1500 -4150,1500 -970,0 -1890,-310 -2780,-950 -900,-640 -1480,-1460 -1700,-2470l-1520 -7310 -15370 0 -3500 7310zm15460 -27990c-190,-1040 -290,-2210 -290,-3510 0,-1270 0,-2470 0,-3600 -290,1130 -620,2330 -1010,3600 -390,1300 -840,2470 -1310,3510l-5590 12400 10150 0 -1950 -12400zm59370 11100c-350,2570 -1050,5040 -2130,7400 -1090,2360 -2640,4460 -4610,6270 -1990,1810 -4460,3240 -7440,4330 -2980,1090 -6510,1650 -10620,1650l-8200 0c-1540,0 -2800,-520 -3760,-1560 -970,-1050 -1360,-2260 -1150,-3660l5710 -40750c180,-1400 920,-2610 2220,-3660 1270,-1050 2690,-1560 4230,-1560l8200 0c4110,0 7500,510 10150,1560 2650,1050 4730,2440 6230,4210 1500,1770 2470,3800 2900,6080 430,2310 470,4710 80,7220l-1810 12470zm-8340 -12470c180,-1400 180,-2690 0,-3890 -190,-1170 -660,-2220 -1380,-3120 -720,-880 -1720,-1580 -3000,-2100 -1290,-510 -2920,-760 -4910,-760l-4930 0 -4630 32780 4940 0c1970,0 3670,-290 5130,-840 1460,-560 2680,-1300 3640,-2240 970,-950 1710,-2060 2240,-3310 540,-1250 910,-2590 1090,-4050l1810 -12470zm30230 32780c-3150,0 -5820,-500 -8040,-1500 -2220,-990 -3980,-2350 -5320,-4050 -1340,-1710 -2220,-3740 -2670,-6060 -470,-2330 -510,-4810 -120,-7460l1950 -14370c390,-2570 1090,-4990 2090,-7300 1010,-2280 2390,-4290 4130,-6040 1750,-1740 3890,-3120 6440,-4130 2520,-1000 5480,-1520 8870,-1520 3400,0 6210,520 8450,1520 2240,1010 4010,2390 5260,4130 1260,1750 2080,3760 2470,6040 390,2310 370,4730 -20,7300l-1950 14370c-400,2650 -1130,5130 -2250,7460 -1100,2320 -2560,4350 -4370,6060 -1830,1700 -3970,3060 -6460,4050 -2480,1000 -5320,1500 -8460,1500zm6020 -43220c-3190,0 -5550,880 -7090,2670 -1540,1790 -2550,4170 -2980,7110l-1950 14370c-430,2890 -80,5280 1050,7110 1130,1820 3200,2750 6180,2750 3000,0 5340,-930 7010,-2750 1660,-1830 2710,-4220 3140,-7110l1980 -14370c430,-2940 100,-5320 -950,-7110 -1070,-1790 -3200,-2670 -6390,-2670zm43730 26820c0,-1260 -270,-2160 -800,-2760 -530,-570 -1070,-980 -1600,-1230 -720,-330 -1500,-660 -2330,-1010 -820,-350 -1700,-650 -2670,-940 -1540,-540 -3080,-1090 -4600,-1670 -1520,-570 -2900,-1350 -4130,-2320 -1230,-970 -2220,-2160 -2980,-3600 -760,-1410 -1130,-3220 -1130,-5380 0,-2610 450,-4990 1380,-7110 920,-2120 2220,-3930 3880,-5410 1660,-1450 3700,-2610 6060,-3410 2370,-800 4970,-1190 7830,-1190 1010,0 2300,80 3840,250 1550,180 3070,470 4550,900 1460,430 2710,1050 3760,1850 1020,800 1540,1830 1540,3080 0,1260 -540,2410 -1580,3460 -1070,1040 -2470,1560 -4220,1560 -680,0 -1250,-80 -1760,-230 -520,-140 -1050,-330 -1650,-570 -680,-250 -1420,-500 -2240,-740 -820,-230 -1870,-350 -3120,-350 -970,0 -1910,100 -2860,290 -940,180 -1790,530 -2510,1000 -710,500 -1290,1150 -1720,1980 -430,820 -660,1820 -660,3040 0,1290 290,2240 840,2810 560,600 1090,1010 1630,1260 860,470 1700,860 2520,1150 830,280 1630,550 2410,800 1540,470 3100,1030 4640,1660 1540,640 2920,1420 4150,2390 1240,960 2220,2180 2980,3590 760,1420 1130,3210 1130,5330 0,2810 -530,5320 -1600,7540 -1070,2240 -2530,4110 -4360,5630 -1820,1520 -3980,2690 -6470,3510 -2490,820 -5160,1240 -8010,1240 -1300,0 -2800,-130 -4460,-370 -1670,-250 -3250,-620 -4750,-1130 -1500,-520 -2770,-1200 -3800,-2040 -1050,-840 -1560,-1830 -1560,-3000 0,-640 140,-1250 430,-1850 290,-590 680,-1130 1190,-1600 510,-450 1090,-820 1750,-1110 630,-290 1330,-430 2050,-430 540,0 1090,80 1690,240 570,190 1190,390 1870,620 820,290 1810,600 2940,950 1130,340 2480,510 4020,510 2800,0 4920,-640 6350,-1890 1420,-1260 2140,-3020 2140,-5300z"/>
   <path class="fil1" d="M389890 28400c-1490,0 -2950,-670 -3910,-1950 -1620,-2160 -1180,-5210 980,-6830l24920 -18650c870,-650 1890,-970 2900,-970l40 0c1470,10 2930,680 3880,1950 1620,2160 1180,5220 -980,6830l-24920 18650c-870,660 -1900,970 -2910,970z"/>
   <path class="fil1" d="M412040 121370c-1020,0 -2050,-320 -2920,-970l-24920 -18660c-2160,-1610 -2600,-4670 -980,-6820 1610,-2160 4670,-2600 6820,-980l24920 18650c2160,1610 2600,4670 980,6820 -950,1280 -2420,1960 -3900,1960z"/>
   <path class="fil1" d="M433540 63460l-33690 0c-2700,0 -4880,-2190 -4880,-4880 0,-2690 2180,-4880 4880,-4880l33690 0c2690,0 4870,2190 4870,4880 0,2690 -2180,4880 -4870,4880z"/>
  </g>
 </g>
</svg>
